<?xml version="1.0" encoding="UTF-8"?>
<svg width="120" height="24" viewBox="0 0 120 24" fill="none" xmlns="http://www.w3.org/2000/svg">
  <path d="M10.2 18.4C14.6 18.4 17.8 15.2 17.8 11C17.8 6.8 14.6 3.6 10.2 3.6C5.8 3.6 2.6 6.8 2.6 11C2.6 15.2 5.8 18.4 10.2 18.4Z" fill="#0076FF"/>
  <path d="M30.4 15.2V6.8H27.2V15.2C27.2 16.8 26 18 24.4 18H10.2C8.6 18 7.4 16.8 7.4 15.2V6.8H4.2V15.2C4.2 18.6 6.8 21.2 10.2 21.2H24.4C27.8 21.2 30.4 18.6 30.4 15.2Z" fill="#00264D"/>
  <path d="M45.6 3.6H31.4C28 3.6 25.4 6.2 25.4 9.6V18H28.6V9.6C28.6 8 29.8 6.8 31.4 6.8H45.6C47.2 6.8 48.4 8 48.4 9.6V18H51.6V9.6C51.6 6.2 49 3.6 45.6 3.6Z" fill="#00264D"/>
  <path d="M65.8 15.2V6.8H62.6V15.2C62.6 16.8 61.4 18 59.8 18H45.6C44 18 42.8 16.8 42.8 15.2V6.8H39.6V15.2C39.6 18.6 42.2 21.2 45.6 21.2H59.8C63.2 21.2 65.8 18.6 65.8 15.2Z" fill="#00264D"/>
  <path d="M81 3.6H66.8C63.4 3.6 60.8 6.2 60.8 9.6V18H64V9.6C64 8 65.2 6.8 66.8 6.8H81C82.6 6.8 83.8 8 83.8 9.6V18H87V9.6C87 6.2 84.4 3.6 81 3.6Z" fill="#00264D"/>
  <path d="M101.2 15.2V6.8H98V15.2C98 16.8 96.8 18 95.2 18H81C79.4 18 78.2 16.8 78.2 15.2V6.8H75V15.2C75 18.6 77.6 21.2 81 21.2H95.2C98.6 21.2 101.2 18.6 101.2 15.2Z" fill="#00264D"/>
  <path d="M116.4 3.6H102.2C98.8 3.6 96.2 6.2 96.2 9.6V18H99.4V9.6C99.4 8 100.6 6.8 102.2 6.8H116.4C118 6.8 119.2 8 119.2 9.6V18H122.4V9.6C122.4 6.2 119.8 3.6 116.4 3.6Z" fill="#00264D"/>
</svg>
