<?xml version="1.0" encoding="UTF-8"?>
<svg width="120" height="24" viewBox="0 0 120 24" fill="none" xmlns="http://www.w3.org/2000/svg">
  <path d="M17.5 4.5C16.1 4.5 15 5.6 15 7V17C15 18.4 16.1 19.5 17.5 19.5H27.5C28.9 19.5 30 18.4 30 17V7C30 5.6 28.9 4.5 27.5 4.5H17.5Z" fill="#1B1B1B"/>
  <path d="M22.5 16C24.4 16 26 14.4 26 12.5C26 10.6 24.4 9 22.5 9C20.6 9 19 10.6 19 12.5C19 14.4 20.6 16 22.5 16Z" fill="white"/>
  <path d="M40.5 4.5H35.5V19.5H40.5C44.1 19.5 47 16.6 47 13C47 9.4 44.1 4.5 40.5 4.5Z" fill="#1B1B1B"/>
  <path d="M57.5 4.5C54.5 4.5 52 7 52 10V14C52 17 54.5 19.5 57.5 19.5H62.5V4.5H57.5Z" fill="#1B1B1B"/>
  <path d="M72.5 4.5C69.5 4.5 67 7 67 10V14C67 17 69.5 19.5 72.5 19.5H77.5V4.5H72.5Z" fill="#1B1B1B"/>
  <path d="M87.5 4.5C84.5 4.5 82 7 82 10V14C82 17 84.5 19.5 87.5 19.5H92.5V4.5H87.5Z" fill="#1B1B1B"/>
  <path d="M102.5 4.5C99.5 4.5 97 7 97 10V14C97 17 99.5 19.5 102.5 19.5H107.5V4.5H102.5Z" fill="#1B1B1B"/>
</svg>
